<?xml version="1.0" encoding="utf-8"?>
<!-- Generator: Adobe Illustrator 22.0.1, SVG Export Plug-In . SVG Version: 6.00 Build 0)  -->
<svg version="1.1" id="Layer_1" xmlns="http://www.w3.org/2000/svg" xmlns:xlink="http://www.w3.org/1999/xlink" x="0px" y="0px"
	 viewBox="0 0 1984.3 1133.9" style="enable-background:new 0 0 1984.3 1133.9;" xml:space="preserve">
<style type="text/css">
	.st0{fill:none;stroke:#3953A4;stroke-width:0.2835;stroke-miterlimit:10;}
</style>
<path id="XMLID_1_" class="st0" d="M33.4,1047.9c0,7.3,5.6,13.5,12.9,14.1l28,2.5l5.5,0.5l40.5,3.6l82.8,8.7c0,0,0,0,0,0l8.2,0.7
	l6.2,0.5l2.8,0.2l22,1.9l13.2,1.2l6.6,0.6l23.7,2.1l6.5,0.6l13,1.1l19.7,1.7c0,0,0,0,0,0l5.5,0.5l6,0.5l8,0.7c0,0,0,0,0,0l31.8,2.8
	h0l5.8,0.5l40.2,3.5l6.3,0.6l12.7,1.1l15.9,1.4c0,0,0,0,0,0l12.3,1.1l7.1,0.6c0,0,0,0,0,0l15.5,1.4l17.3,1.5l8.6,0.8l15.3,1.3
	l6.1,0.5l3.8,0.3l36.9,3.3l5.9,0.5l40.5,3.6l5.4,0.5l40,3.5l6.1,0.5l26,2.3l39.3,3.5c0,0,0,0,0,0l3.3,0.3l7.3,0.6c0,0,0,0,0,0
	l1.4,0.1l1,0.1h140.6l8.5-0.4l1.9-0.1l21.5-1c0,0,0,0,0,0l2.1-0.1l36.5-1.7c0,0,0,0,0,0l11.2-0.5l26.9-1.2l22.2-1l16.4-0.8
	c0,0,0,0,0,0l1.8-0.1h0l40.2-1.9l6-0.3l40.2-1.9l5.9-0.3l40.2-1.9l5.5-0.3l40.4-1.9l5.7-0.3l40-1.9l6-0.3l27.7-1.3l11.7-0.5l6.3-0.3
	l6.5-0.3h0l18.5-0.9l13.8-0.6l6.2-0.3l18.4-0.9l5.8-0.3l8.8-0.4c0,0,0,0,0,0l4-0.2l8.3-0.4h0l0.2,0h0l23.5-1.1l6.9-0.3l13.5-0.6
	l12-0.6c0,0,0,0,0,0l13-0.6l5.7-0.3l12.9-0.6h0l25-1.2c0,0,0,0,0,0l1.7-0.1l6-0.3l9.1-0.4c0,0,0,0,0,0l30.8-1.4l6.1-0.3l39.9-1.9
	l5.8-0.3l37.2-1.7l28.5,35.4h94l28.7-36.3V42.6l-28.4-36.3h-94l-28.8,35.4l-36.9-1.7l-6-0.3l-29.1-1.3l-23-1.1c0,0,0,0,0,0
	l-19.6-0.9l-36.8-1.7c0,0,0,0,0,0l-7.1-0.3l-10.1-0.5h0l-2.9-0.1c0,0,0,0,0,0l-0.3,0h-0.1l-4.9-0.2c0,0,0,0,0,0l-47-2.2l-11.2-0.5h0
	l-32.8-1.5h0l-22.1-1l-20.2-0.9l-29.3-1.4l-5.9-0.3l-40.1-1.9l-5.6-0.3l-40.4-1.9l-5.5-0.2l-40.5-1.9l-5.6-0.2l-40.2-1.9l-6.1-0.3
	l-39.2-1.8c0,0,0,0,0,0l-1,0l-6.2-0.3l-13.2-0.6l-18.6-0.9l-8.6-0.4l-6.6-0.3l-14.8-0.7l-8.9-0.4c0,0,0,0,0,0L998.3,11l-8.4-0.4
	l-4.7-0.2c0,0,0,0,0,0l-9-0.4l-0.3,0h0l-19.8-0.9h0l-5.2-0.2l-15-0.7l-6.4-0.3l-12.2-0.6h0l-14.7-0.7c0,0,0,0,0,0l-4.9-0.2l-0.9,0
	H756.1v0l-5.5,0.5L745,7.3l-16,1.4c0,0,0,0,0,0l-8,0.7l-8.7,0.8h0l-3.9,0.3l-7.8,0.7l-6.2,0.6h0l-17.4,1.5l-6.2,0.5L658.4,15
	L632,17.3l-6.1,0.5l-40,3.5l-5.5,0.5l-40.6,3.6l-5.8,0.5l-35.8,3.2l-26.5,2.3h0l-7.4,0.6l-19.5,1.7c0,0,0,0,0,0l-32.8,2.9l-17.3,1.5
	l-16.2,1.4c0,0,0,0,0,0l-2,0.2l-40,3.5l-5.9,0.5l-31,2.7c0,0,0,0,0,0l-21.8,1.9c0,0,0,0,0,0l-17.9,1.6h0l-63,5.6l-22.8,2l-15.4,1.4
	l-32.3,2.9l-5.8,0.5L79.8,66l-5.5,0.5l-28,2.5c-7.3,0.6-12.9,6.8-12.9,14.1V1047.9z"/>
</svg>
